HIERARCHY
ROOT Hips
{
	OFFSET -3.958830 18.904000 13.208200
	CHANNELS 6 Xposition Yposition Zposition Zrotation Yrotation Xrotation 
	JOINT LHipJoint
	{
		OFFSET 0.000000 0.000000 0.000000
		CHANNELS 3 Zrotation Yrotation Xrotation
		JOINT LeftUpLeg
		{
			OFFSET 1.800000 -1.400000 0.085000
			CHANNELS 3 Zrotation Yrotation Xrotation
			JOINT LeftLeg
			{
				OFFSET 2.215000 -6.000000 0.000000
				CHANNELS 3 Zrotation Yrotation Xrotation
				JOINT LeftFoot
				{
					OFFSET 2.500000 -6.900000 0.000000
					CHANNELS 3 Zrotation Yrotation Xrotation
					JOINT LeftToeBase
					{
						OFFSET 0.200000 -0.500000 1.950000
						CHANNELS 3 Zrotation Yrotation Xrotation
						End Site
						{
							OFFSET 0.000000 0.000000 0.000000
						}
					}
				}
			}
		}
	}
	JOINT RHipJoint
	{
		OFFSET 0.000000 0.000000 0.000000
		CHANNELS 3 Zrotation Yrotation Xrotation
		JOINT RightUpLeg
		{
			OFFSET -1.800000 -1.400000 0.085000
			CHANNELS 3 Zrotation Yrotation Xrotation
			JOINT RightLeg
			{
				OFFSET -2.215000 -6.000000 0.000000
				CHANNELS 3 Zrotation Yrotation Xrotation
				JOINT RightFoot
				{
					OFFSET -2.500000 -6.900000 0.000000
					CHANNELS 3 Zrotation Yrotation Xrotation
					JOINT RightToeBase
					{
						OFFSET -0.200000 -0.500000 1.950000
						CHANNELS 3 Zrotation Yrotation Xrotation
						End Site
						{
							OFFSET 0.000000 0.000000 0.000000
						}
					}
				}
			}
		}
	}
	JOINT LowerBack
	{
		OFFSET 0.000000 0.000000 0.000000
		CHANNELS 3 Zrotation Yrotation Xrotation
		JOINT Spine
		{
			OFFSET -0.087000 1.940000 -0.288900
			CHANNELS 3 Zrotation Yrotation Xrotation
			JOINT Spine1
			{
				OFFSET 0.000000 1.950000 0.060000
				CHANNELS 3 Zrotation Yrotation Xrotation
				JOINT Neck
				{
					OFFSET 0.000000 0.000000 0.000000
					CHANNELS 3 Zrotation Yrotation Xrotation
					JOINT Neck1
					{
						OFFSET 0.000000 1.600000 0.340000
						CHANNELS 3 Zrotation Yrotation Xrotation
						JOINT Head
						{
							OFFSET 0.000000 1.667000 -0.240000
							CHANNELS 3 Zrotation Yrotation Xrotation
							End Site
							{
								OFFSET 0.000000 0.000000 0.000000
							}
						}
					}
				}
				JOINT LeftShoulder
				{
					OFFSET 0.000000 0.000000 0.000000
					CHANNELS 3 Zrotation Yrotation Xrotation
					JOINT LeftArm
					{
						OFFSET 2.700000 1.550000 -0.730000
						CHANNELS 3 Zrotation Yrotation Xrotation
						JOINT LeftForeArm
						{
							OFFSET 5.450000 0.000000 0.000000
							CHANNELS 3 Zrotation Yrotation Xrotation
							JOINT LeftHand
							{
								OFFSET 3.450000 0.000000 0.000000
								CHANNELS 3 Zrotation Yrotation Xrotation
								JOINT LeftHandIndex1
								{
									OFFSET 0.750000 0.000000 0.000000
									CHANNELS 3 Zrotation Yrotation Xrotation
									End Site
									{
										OFFSET 0.000000 0.000000 0.000000
									}
								}
							}
						}
					}
				}
				JOINT RightShoulder
				{
					OFFSET 0.000000 0.000000 0.000000
					CHANNELS 3 Zrotation Yrotation Xrotation
					JOINT RightArm
					{
						OFFSET -2.700000 1.550000 -0.730000
						CHANNELS 3 Zrotation Yrotation Xrotation
						JOINT RightForeArm
						{
							OFFSET -5.450000 0.000000 0.000000
							CHANNELS 3 Zrotation Yrotation Xrotation
							JOINT RightHand
							{
								OFFSET -3.450000 0.000000 0.000000
								CHANNELS 3 Zrotation Yrotation Xrotation
								JOINT RightHandIndex1
								{
									OFFSET -0.750000 0.000000 0.000000
									CHANNELS 3 Zrotation Yrotation Xrotation
									End Site
									{
										OFFSET 0.000000 0.000000 0.000000
									}
								}
							}
						}
					}
				}
			}
		}
	}
}
MOTION
Frames: 7
Frame Time: 0.016667
-0.581680 17.509790 -3.866370 -7.031784 5.577271 9.257788 -15.042457 12.939155 3.258754 8.638713 -2.999736 -25.284368 -8.341079 8.057910 23.627761 -0.807235 5.760167 2.765907 -0.242570 -0.521580 -0.344150 18.340328 -12.087445 1.573007 -16.344493 3.439094 -17.889106 -14.649001 -1.960403 48.982925 -0.766371 -7.706951 1.608734 -0.060220 1.123190 0.556740 -3.943638 -0.039732 -6.659288 9.647235 2.925982 6.022653 0.517102 2.764269 4.554067 1.416683 2.491144 -8.012708 4.896082 -3.126867 18.769815 -6.459180 -0.567350 -6.607400 -20.893927 -5.999735 4.090394 -35.937642 7.849379 -7.032153 -30.999101 -24.399596 2.571795 -4.429102 2.895333 0.450370 0.700900 -0.270660 0.259310 18.102777 5.239612 3.597894 49.711843 1.138894 -7.482010 4.939672 18.954254 -0.911702 1.928044 -1.180633 -0.564340 0.521910 0.515430 0.023700 
-0.575480 17.559100 -3.804630 -7.347456 5.741911 9.488848 -14.998705 12.922408 3.170621 9.071557 -2.710157 -24.135382 -8.941897 7.808267 21.521683 -0.828501 5.634868 2.851322 -0.278660 -0.539170 -0.436580 18.397541 -12.079274 1.614015 -15.109443 3.680067 -18.453094 -17.212177 -0.460446 49.731524 -0.797962 -7.931158 1.576755 -0.046820 1.232670 0.568680 -4.087633 0.023582 -6.583398 11.194733 2.348626 5.082016 -0.235659 2.240497 4.441198 1.361371 1.481250 -7.540161 3.343939 -2.247550 18.076033 -5.976310 -0.851060 -5.199990 -20.995811 -4.943743 3.481876 -38.399017 6.544570 -6.818879 -27.576301 -23.736410 1.915958 -4.530170 2.864889 0.376210 0.778010 -0.340350 0.289190 18.258180 4.626348 3.338780 48.625490 1.241384 -6.624352 4.050995 16.548756 -0.986899 1.924502 -1.192801 -0.573660 0.557600 0.556370 0.068430 
-0.550680 17.641880 -3.735260 -7.993333 5.783464 9.553100 -14.922887 12.910550 3.023233 9.100211 -2.442544 -22.718188 -8.484846 7.190291 19.376441 -0.849558 5.330565 2.998178 -0.325570 -0.582640 -0.510680 18.482163 -12.066283 1.762772 -13.398029 4.001042 -19.726751 -19.348935 0.814597 51.459068 -0.866049 -8.271647 1.497452 -0.064760 1.293650 0.546230 -4.317227 0.153707 -6.569314 13.931153 1.628750 4.601830 -1.955163 1.766831 4.004731 1.548119 0.374090 -7.265136 1.607767 -1.619712 17.899598 -4.991250 -1.396820 -3.959000 -20.770875 -3.894157 2.828480 -42.339808 4.659268 -6.936372 -22.834414 -24.096650 1.286770 -4.566934 2.819781 0.333770 0.798300 -0.393680 0.301170 17.464413 4.005668 3.410035 49.089835 0.805182 -6.477257 2.295784 14.900676 -1.111984 1.955902 -1.188312 -0.586960 0.577350 0.584220 0.101100 
-0.531350 17.742660 -3.655330 -8.463235 6.683858 9.466448 -14.881049 12.912438 2.911453 9.299044 -2.189194 -20.731571 -8.506777 6.517623 16.099178 -0.874923 5.040614 3.157376 -0.396630 -0.676480 -0.576520 18.532209 -12.009948 1.874870 -11.978517 3.859942 -21.037941 -19.749803 0.832007 53.341812 -0.912743 -8.572002 1.426628 -0.115220 1.353190 0.522430 -4.462259 0.140847 -6.583679 16.291613 0.577099 4.151318 -3.663630 0.907150 3.652948 1.975713 -0.260209 -7.285209 0.537282 -1.071698 18.042087 -4.337760 -1.592470 -2.512610 -19.774214 -3.117464 2.454970 -46.981303 2.763623 -7.370027 -18.790451 -26.095287 0.864620 -4.583392 2.771315 0.331210 0.812130 -0.441740 0.306220 15.463696 3.212633 3.630394 51.077314 0.178942 -6.833554 0.980354 13.965251 -1.177250 1.979994 -1.166758 -0.624900 0.596320 0.619130 0.114130 
-0.519160 17.866100 -3.597780 -9.217950 8.244832 9.046422 -14.855772 12.933322 2.846957 9.940259 -1.938346 -18.970705 -8.404184 5.938134 13.052624 -0.837805 4.800946 3.259748 -0.427540 -0.718420 -0.602320 18.565659 -11.867626 2.003008 -10.444542 3.560580 -22.571425 -17.758066 -0.773854 55.808015 -0.965212 -8.801646 1.362511 -0.170440 1.330090 0.510320 -4.574456 -0.057260 -6.683531 18.937973 -0.849582 4.370413 -4.950785 -0.296455 3.200966 2.254888 -1.097981 -7.390959 -1.060195 -0.702350 19.113101 -3.871300 -1.800060 -1.993630 -19.049994 -2.794651 2.271122 -51.355919 0.535794 -7.510044 -16.227457 -28.325748 0.607545 -4.537703 2.764931 0.342860 0.774910 -0.430010 0.301460 14.004641 3.025112 3.886881 52.502884 -0.013894 -7.127960 -1.090416 13.288311 -1.201774 2.028197 -1.142340 -0.605560 0.572870 0.621950 0.124310 
-0.526930 17.948660 -3.510340 -9.223796 9.701740 9.296051 -14.887706 12.853772 2.740097 9.612446 -1.867681 -17.647393 -8.097371 5.468926 10.769278 -0.853523 4.711730 3.340417 -0.489030 -0.781420 -0.720950 18.586434 -11.631165 2.149175 -9.942818 3.399838 -25.194247 -14.404118 -3.482830 59.068829 -0.969342 -9.297804 1.197719 -0.168510 1.448360 0.506290 -4.571388 -0.222771 -6.661707 19.360971 -1.830488 3.308427 -4.891423 -1.446830 3.185978 1.931855 -1.857660 -6.978606 -2.219678 -0.205712 18.114652 -2.844520 -2.812410 0.463430 -16.659225 -0.755518 1.765221 -57.543475 -2.303863 -6.901890 -13.930084 -30.642073 0.264563 -4.621051 2.814182 0.251830 0.848410 -0.543900 0.318260 12.307472 1.170473 3.236606 53.394183 0.555767 -6.834098 -2.030521 12.882971 -1.332364 2.021634 -1.197027 -0.631600 0.583470 0.683560 0.166700 
-0.532340 18.026720 -3.416860 -9.204904 9.873546 8.471472 -14.895190 12.884323 2.670038 9.428460 -1.595622 -15.171053 -8.233811 5.337442 9.211143 -0.823232 4.721641 3.352150 -0.483440 -0.799400 -0.690650 18.597866 -11.376603 2.349315 -9.439645 3.530791 -26.994564 -10.875251 -6.284175 61.485428 -1.075705 -9.616657 1.098585 -0.202230 1.396280 0.473280 -4.579094 -0.544362 -6.795774 20.024713 -2.760850 3.949005 -5.564217 -2.202093 3.043875 2.086064 -2.553220 -7.015315 -3.766081 0.269707 20.016154 -1.911370 -3.053810 -0.547460 -15.150063 0.186967 1.757311 -61.921099 -4.319035 -6.466900 -13.048411 -34.076998 0.238966 -4.523746 2.770312 0.341430 0.769910 -0.493820 0.310080 10.399257 0.510535 3.115202 54.771462 1.382576 -6.924784 -2.879800 13.117849 -1.269593 2.044568 -1.120378 -0.644070 0.607000 0.675190 0.146000 
